<svg xmlns="http://www.w3.org/2000/svg" xmlns:xlink="http://www.w3.org/1999/xlink" viewBox="0,0,256,256" width="50px" height="50px" fill-rule="nonzero"><g transform="translate(-46.08,-46.08) scale(1.36,1.36)"><g fill="#38d200" fill-rule="nonzero" stroke="none" stroke-width="1" stroke-linecap="butt" stroke-linejoin="miter" stroke-miterlimit="10" stroke-dasharray="" stroke-dashoffset="0" font-family="none" font-weight="none" font-size="none" text-anchor="none" style="mix-blend-mode: normal"><path d="M33.88235,222.11765v-188.23529h188.23529v188.23529z" id="bgRectangle"></path></g><g fill="#0473ea" fill-rule="nonzero" stroke="none" stroke-width="1" stroke-linecap="butt" stroke-linejoin="miter" stroke-miterlimit="10" stroke-dasharray="" stroke-dashoffset="0" font-family="none" font-weight="none" font-size="none" text-anchor="none" style="mix-blend-mode: normal"><g transform="scale(5.12,5.12)"><path d="M37,4h-24c-4.963,0 -9,4.038 -9,9v24c0,4.962 4.037,9 9,9h24c4.963,0 9,-4.038 9,-9v-24c0,-4.962 -4.037,-9 -9,-9zM34.821,17.376l-2.258,2.17c-0.183,0.176 -0.459,0.182 -0.647,0.012c-1.466,-1.329 -7.947,-3.95 -9.045,-0.695c-0.538,1.593 0.737,2.847 3.942,3.708c5.57,1.497 7.028,5.078 6.515,8.267c-0.418,2.601 -2.317,5.446 -6.879,6.043l-0.616,2.728c-0.051,0.229 -0.254,0.391 -0.488,0.391h-4.1c-0.321,0 -0.558,-0.297 -0.488,-0.61l0.615,-2.724c-3.624,-0.784 -5.575,-2.967 -6.254,-3.886c-0.163,-0.221 -0.114,-0.534 0.103,-0.699l2.472,-1.878c0.205,-0.155 0.486,-0.122 0.654,0.074c0.559,0.652 1.986,1.994 4.589,2.4c3.71,0.579 4.956,-0.625 5.212,-2.075c0.782,-4.423 -11.173,-2.654 -10.294,-11.602c0.341,-3.457 3.42,-6 7.135,-6c0.593,0 1.154,0.036 1.694,0.091l0.609,-2.695c0.051,-0.228 0.254,-0.39 0.488,-0.39h4.1c0.321,0 0.558,0.297 0.488,0.61l-0.856,3.791c1.693,0.799 2.797,1.739 3.319,2.247c0.202,0.197 0.194,0.526 -0.01,0.722z"></path></g></g></g></svg>